# xmcd
#
# Track frame offsets:
#	150
#	14340
#	30515
#	53002
#	69152
#	92792
#	107610
#	122925
#	135507
#	147817
#	159902
#	176567
#	190040
#	202972
#	213570
#	227455
#	240837
#	256585
#	271632
#	293022
#
# Disc length: 4105 seconds
#
# Revision: 1
# Processed by: cddbd v1.5.1PL0 Copyright (c) Steve Scherf et al.
# Submitted via: CDex 1.50Beta5
#
DISCID=fb100714
DTITLE=青春ポップス - 青春ポップス 12
DYEAR=1900
DGENRE=Pop
TTITLE0=西条秀樹/傷だらけのローラ
TTITLE1=和田アキ子/あの鐘を鳴らすのはあなた
TTITLE2=狩人/あずさ2号
TTITLE3=朱里エイ子/北国行きで
TTITLE4=西条秀樹/ブルースカイブルー
TTITLE5=森田健作/さらば涙と言おう
TTITLE6=加山雄三/旅人よ
TTITLE7=あおい輝彦/二人の世界
TTITLE8=西条秀樹/情熱の嵐
TTITLE9=和田アキ子/笑って許して
TTITLE10=野村真樹/一度だけなら
TTITLE11=森田健作/友達よ泣くんじゃない
TTITLE12=西条秀樹/激しい恋
TTITLE13=加山雄三/蒼い星くず
TTITLE14=あおい輝彦/三人家族
TTITLE15=和田アキ子/どしゃぶりの雨の中で
TTITLE16=ビューティー・ペア/かけめぐる青春
TTITLE17=浅野ゆう子/セクシー・バス・ストップ
TTITLE18=西条秀樹/YOUNG MAN
TTITLE19=加山雄三/君といつまでも
EXTD=
EXTT0=
EXTT1=
EXTT2=
EXTT3=
EXTT4=
EXTT5=
EXTT6=
EXTT7=
EXTT8=
EXTT9=
EXTT10=
EXTT11=
EXTT12=
EXTT13=
EXTT14=
EXTT15=
EXTT16=
EXTT17=
EXTT18=
EXTT19=
PLAYORDER=
